<?xml version="1.0" encoding="UTF-8"?>
<svg id="Layer_2" data-name="Layer 2" xmlns="http://www.w3.org/2000/svg" viewBox="0 0 230.27 228.78">
  <defs>
    <style>
      .cls-1 {
        fill: none;
        stroke-width: 16px;
      }

      .cls-1, .cls-2 {
        stroke: #fff;
        stroke-miterlimit: 10;
      }

      .cls-2 {
        fill: #015e34;
        stroke-width: 13px;
      }
    </style>
  </defs>
  <g id="Layer_3" data-name="Layer 3">
    <path class="cls-2" d="M40.79,174.09c-1.77,6.12-4.95,11.78-9.12,16.58-5.45,6.26-12.59,11.05-20.54,13.45"/>
    <path class="cls-2" d="M31.43,217.14c-1.48-5.23-1.25-20.6-1.13-23.93"/>
    <path class="cls-1" d="M215.31,94.8c10.05-17.9,10.25-46.96-6.29-59.11-15.37-11.29-36.79-25.38-54.71-27.39-20.4-2.28-37.96,8.71-55.35,19.62h0C60.15,15.19,44.61,84.54,14.46,118.47c-31.49,35.44,59.96,89.53,107.41,71.93"/>
    <path class="cls-1" d="M215.7,87.93c4.98,12.31-6.27,27.43-5.96,57.77.94,92.35-46.44,70.38-113.65,75.06-12.91.9,67.09-30.75,59.27-33.6-14.06-5.13-25.37,8.74-39.28,3.2"/>
    <path class="cls-1" d="M192.1,88.21c8.28,44.58-53.93,107.05-76.65,61.9-1.95-4.08,5.56.71,9.3-1.06,14.52-6.9,43.85-39.79,57.48-56.51.85-1.05,2.13-1.52,3.18-2.27,3.53-2.27,5.45-4.87,6.66-2.16l.03.09Z"/>
  </g>
</svg>